<svg height="512" viewBox="0 0 64 64" width="512" xmlns="http://www.w3.org/2000/svg"><g id="virus-covid19-report-coronavirus-static"><g fill="#9bc9ff"><path d="m3 45v4a2.006 2.006 0 0 0 2 2h54a2.006 2.006 0 0 0 2-2v-4z"/><path d="m26 51h12v6h-12z"/><path d="m21 57a2 2 0 0 0 -2 2v2h26v-2a2 2 0 0 0 -2-2z"/><circle cx="50" cy="7" r="1"/><path d="m45.757 8.343a1 1 0 1 0 0 1.414 1 1 0 0 0 0-1.414z"/><circle cx="43" cy="14" r="1"/><path d="m44.343 18.243a1 1 0 1 0 1.414 0 1 1 0 0 0 -1.414 0z"/><circle cx="50" cy="21" r="1"/><path d="m54.243 19.657a1 1 0 1 0 0-1.414 1 1 0 0 0 0 1.414z"/><circle cx="57" cy="14" r="1"/><path d="m55.657 9.757a1 1 0 1 0 -1.414 0 1 1 0 0 0 1.414 0z"/><path d="m18 32a2 2 0 1 0 -3.414 1.414 2 2 0 0 0 3.414-1.414z"/><circle cx="27" cy="29" r="2"/><circle cx="34" cy="20" r="2"/></g><path d="m6 42h52v-20.466a10.99 10.99 0 0 1 -19-7.534h-33z" fill="none"/><path d="m60.844 12.225a11.041 11.041 0 0 1 .156 1.775v-1a2 2 0 0 0 -.156-.775z" fill="#9bc9ff"/><path d="m58 42h-52v-28h33a10.965 10.965 0 0 1 .425-3h-34.425a2 2 0 0 0 -2 2v32h58v-31a10.951 10.951 0 0 1 -3 7.534z" fill="#9bc9ff"/><circle cx="50" cy="14" fill="#9bc9ff" r="3"/><path d="m33 47h-2a1 1 0 0 0 0 2h2a1 1 0 0 0 0-2z" fill="#1e81ce"/><path d="m10 39h30a1 1 0 0 0 0-2h-27.586l2.3-2.3a2.951 2.951 0 0 0 1.286.3 3 3 0 0 0 2.978-2.778l5.563-1.512a2.994 2.994 0 0 0 4.981-3.322l3.539-4.553a3 3 0 1 0 -1.583-1.223l-3.539 4.553a2.949 2.949 0 0 0 -3.917 2.613l-5.563 1.512a3 3 0 0 0 -5.459 1.71 2.951 2.951 0 0 0 .3 1.285l-2.3 2.3v-17.585a1 1 0 0 0 -2 0v20a1 1 0 0 0 1 1zm24-20a1 1 0 1 1 -1 1 1 1 0 0 1 1-1zm-7 9a1 1 0 1 1 -1 1 1 1 0 0 1 1-1zm-11 3a1 1 0 1 1 -.7 1.714v-.014l-.011-.007a1 1 0 0 1 .711-1.693z" fill="#1e81ce"/><path d="m50 2a12.014 12.014 0 0 0 -11.3 8h-33.7a3.009 3.009 0 0 0 -3 3v36a3.009 3.009 0 0 0 3 3h20v4h-4a3.009 3.009 0 0 0 -3 3v2a1 1 0 0 0 1 1h26a1 1 0 0 0 1-1v-2a3.009 3.009 0 0 0 -3-3h-4v-4h20a3.009 3.009 0 0 0 3-3v-35a12.01 12.01 0 0 0 -12-12zm-7 56a1 1 0 0 1 1 1v1h-24v-1a1 1 0 0 1 1-1zm-16-2v-4h10v4zm33-7a1 1 0 0 1 -1 1h-54a1 1 0 0 1 -1-1v-3h56zm0-5h-56v-31a1 1 0 0 1 1-1h33.18c-.05.33-.1.66-.13 1h-32.05a1 1 0 0 0 -1 1v28a1 1 0 0 0 1 1h52a1 1 0 0 0 1-1v-20.09a12.36 12.36 0 0 0 1-1.29zm-10-18a11.946 11.946 0 0 0 7-2.27v17.27h-50v-26h31.05a12.009 12.009 0 0 0 11.95 11zm0-2a10 10 0 1 1 10-10 10.016 10.016 0 0 1 -10 10z" fill="#1e81ce"/><path d="m44.722 15h1.42a3.915 3.915 0 0 0 .425 1.019l-1.006 1.006a2 2 0 1 0 1.413 1.415l1.007-1.007a3.915 3.915 0 0 0 1.019.425v1.42a2 2 0 1 0 2 0v-1.42a3.915 3.915 0 0 0 1.019-.425l1.006 1.007a2 2 0 0 0 .509 1.923 2 2 0 1 0 .9-3.339l-1.006-1.006a3.915 3.915 0 0 0 .43-1.018h1.42a2 2 0 1 0 0-2h-1.42a3.915 3.915 0 0 0 -.425-1.019l1.006-1.006a2.015 2.015 0 0 0 .51.074 2.006 2.006 0 1 0 -1.923-1.489l-1.007 1.007a3.915 3.915 0 0 0 -1.019-.425v-1.42a2 2 0 1 0 -2 0v1.42a3.915 3.915 0 0 0 -1.019.425l-1.006-1.007a2 2 0 0 0 -.509-1.923 2 2 0 1 0 -1.415 3.413 2.022 2.022 0 0 0 .511-.074l1.006 1.006a3.915 3.915 0 0 0 -.426 1.018h-1.42a2 2 0 1 0 0 2zm5.278-3a2 2 0 1 1 -2 2 2 2 0 0 1 2-2z" fill="#1e81ce"/><path d="m45 35h1a1 1 0 0 0 0-2h-1a1 1 0 0 0 0 2z" fill="#1e81ce"/><path d="m49 35h5a1 1 0 0 0 0-2h-5a1 1 0 0 0 0 2z" fill="#1e81ce"/><path d="m45 39h1a1 1 0 0 0 0-2h-1a1 1 0 0 0 0 2z" fill="#1e81ce"/><path d="m49 39h5a1 1 0 0 0 0-2h-5a1 1 0 0 0 0 2z" fill="#1e81ce"/></g></svg>