<svg height="512" viewBox="0 0 64 64" width="512" xmlns="http://www.w3.org/2000/svg"><g id="virus-covid19-report-coronavirus-static"><path d="m26 51h12v6h-12z" fill="#808285"/><path d="m5 11h54a2 2 0 0 1 2 2v32a0 0 0 0 1 0 0h-58a0 0 0 0 1 0 0v-32a2 2 0 0 1 2-2z" fill="#58595b"/><path d="m6 14h52v28h-52z" fill="#ffc477"/><path d="m54 14a28 28 0 0 1 -28 28h32v-28z" fill="#ffb655"/><path d="m26 51h12v3h-12z" fill="#6d6e71"/><path d="m3 45v4a2.006 2.006 0 0 0 2 2h54a2.006 2.006 0 0 0 2-2v-4z" fill="#004fac"/><path d="m21 57a2 2 0 0 0 -2 2v2h26v-2a2 2 0 0 0 -2-2z" fill="#414042"/><g fill="#0b7"><circle cx="50" cy="7" r="1"/><path d="m45.757 8.343a1 1 0 1 0 0 1.414 1 1 0 0 0 0-1.414z"/><circle cx="43" cy="14" r="1"/><path d="m44.343 18.243a1 1 0 1 0 1.414 0 1 1 0 0 0 -1.414 0z"/><circle cx="50" cy="21" r="1"/><path d="m54.243 19.657a1 1 0 1 0 0-1.414 1 1 0 0 0 0 1.414z"/><circle cx="57" cy="14" r="1"/><path d="m55.657 9.757a1 1 0 1 0 -1.414 0 1 1 0 0 0 1.414 0z"/></g><circle cx="50" cy="14" fill="#ffcd00" r="11"/><path d="m50 3a11.07 11.07 0 0 0 -2 .19 10.992 10.992 0 0 1 0 21.62 11 11 0 1 0 2-21.81z" fill="#ebbf00"/><circle cx="50" cy="14" fill="#d51920" r="3"/><path d="m33 47h-2a1 1 0 0 0 0 2h2a1 1 0 0 0 0-2z" fill="#f1f2f2"/><path d="m11 38a1 1 0 0 1 -.707-1.707l5-5a1 1 0 0 1 .444-.258l10.678-2.912 6.8-8.737a1 1 0 1 1 1.578 1.228l-7 9a1 1 0 0 1 -.526.351l-10.747 2.935-4.813 4.812a1 1 0 0 1 -.707.288z" fill="#ff9811"/><path d="m44.722 15h1.42a3.915 3.915 0 0 0 .425 1.019l-1.006 1.006a2 2 0 1 0 1.413 1.415l1.007-1.007a3.915 3.915 0 0 0 1.019.425v1.42a2 2 0 1 0 2 0v-1.42a3.915 3.915 0 0 0 1.019-.425l1.006 1.007a2 2 0 0 0 .509 1.923 2 2 0 1 0 .9-3.339l-1.006-1.006a3.915 3.915 0 0 0 .43-1.018h1.42a2 2 0 1 0 0-2h-1.42a3.915 3.915 0 0 0 -.425-1.019l1.006-1.006a2.015 2.015 0 0 0 .51.074 2.006 2.006 0 1 0 -1.923-1.489l-1.007 1.007a3.915 3.915 0 0 0 -1.019-.425v-1.42a2 2 0 1 0 -2 0v1.42a3.915 3.915 0 0 0 -1.019.425l-1.006-1.007a2 2 0 0 0 -.509-1.923 2 2 0 1 0 -1.415 3.413 2.022 2.022 0 0 0 .511-.074l1.006 1.006a3.915 3.915 0 0 0 -.426 1.018h-1.42a2 2 0 1 0 0 2zm5.278-3a2 2 0 1 1 -2 2 2 2 0 0 1 2-2z" fill="#ed1c24"/><path d="m45 35h1a1 1 0 0 0 0-2h-1a1 1 0 0 0 0 2z" fill="#ff5023"/><path d="m49 35h5a1 1 0 0 0 0-2h-5a1 1 0 0 0 0 2z" fill="#ff5023"/><path d="m45 39h1a1 1 0 0 0 0-2h-1a1 1 0 0 0 0 2z" fill="#ff5023"/><path d="m49 39h5a1 1 0 0 0 0-2h-5a1 1 0 0 0 0 2z" fill="#ff5023"/><path d="m40 39h-30a1 1 0 0 1 -1-1v-20a1 1 0 0 1 2 0v19h29a1 1 0 0 1 0 2z" fill="#006df0"/><path d="m18 32a2 2 0 1 0 -3.414 1.414 2 2 0 0 0 3.414-1.414z" fill="#ed1c24"/><circle cx="27" cy="29" fill="#ed1c24" r="2"/><circle cx="34" cy="20" fill="#ed1c24" r="2"/></g></svg>