<?xml version="1.0"?>
<svg xmlns="http://www.w3.org/2000/svg" viewBox="0 0 64 64" width="512" height="512"><g id="virus-covid19-report-coronavirus-static"><path d="M33,47H31a1,1,0,0,0,0,2h2a1,1,0,0,0,0-2Z"/><path d="M10,39H40a1,1,0,0,0,0-2H12.414l2.3-2.3A2.951,2.951,0,0,0,16,35a3,3,0,0,0,2.978-2.778l5.563-1.512a2.994,2.994,0,0,0,4.981-3.322l3.539-4.553a3,3,0,1,0-1.583-1.223l-3.539,4.553a2.949,2.949,0,0,0-3.917,2.613L18.459,30.29A3,3,0,0,0,13,32a2.951,2.951,0,0,0,.3,1.285l-2.3,2.3V18a1,1,0,0,0-2,0V38A1,1,0,0,0,10,39ZM34,19a1,1,0,1,1-1,1A1,1,0,0,1,34,19Zm-7,9a1,1,0,1,1-1,1A1,1,0,0,1,27,28ZM16,31a1,1,0,1,1-.7,1.714L15.3,32.7l-.011-.007A1,1,0,0,1,16,31Z"/><path d="M50,2a12.014,12.014,0,0,0-11.3,8H5a3.009,3.009,0,0,0-3,3V49a3.009,3.009,0,0,0,3,3H25v4H21a3.009,3.009,0,0,0-3,3v2a1,1,0,0,0,1,1H45a1,1,0,0,0,1-1V59a3.009,3.009,0,0,0-3-3H39V52H59a3.009,3.009,0,0,0,3-3V14A12.01,12.01,0,0,0,50,2ZM43,58a1,1,0,0,1,1,1v1H20V59a1,1,0,0,1,1-1ZM27,56V52H37v4Zm33-7a1,1,0,0,1-1,1H5a1,1,0,0,1-1-1V46H60Zm0-5H4V13a1,1,0,0,1,1-1H38.18c-.05.33-.1.66-.13,1H6a1,1,0,0,0-1,1V42a1,1,0,0,0,1,1H58a1,1,0,0,0,1-1V21.91a12.36,12.36,0,0,0,1-1.29ZM50,26a11.946,11.946,0,0,0,7-2.27V41H7V15H38.05A12.009,12.009,0,0,0,50,26Zm0-2A10,10,0,1,1,60,14,10.016,10.016,0,0,1,50,24Z"/><path d="M44.722,15h1.42a3.915,3.915,0,0,0,.425,1.019l-1.006,1.006a2,2,0,1,0,1.413,1.415l1.007-1.007A3.915,3.915,0,0,0,49,17.858v1.42a2,2,0,1,0,2,0v-1.42a3.915,3.915,0,0,0,1.019-.425l1.006,1.007a2,2,0,0,0,.509,1.923h0a2,2,0,1,0,.9-3.339l-1.006-1.006A3.915,3.915,0,0,0,53.858,15h1.42a2,2,0,1,0,0-2h-1.42a3.915,3.915,0,0,0-.425-1.019l1.006-1.006a2.015,2.015,0,0,0,.51.074A2.006,2.006,0,1,0,53.026,9.56l-1.007,1.007A3.915,3.915,0,0,0,51,10.142V8.722a2,2,0,1,0-2,0v1.42a3.915,3.915,0,0,0-1.019.425L46.975,9.56a2,2,0,0,0-.509-1.923h0a2,2,0,1,0-1.415,3.413,2.022,2.022,0,0,0,.511-.074l1.006,1.006A3.915,3.915,0,0,0,46.142,13h-1.42a2,2,0,1,0,0,2ZM50,12a2,2,0,1,1-2,2A2,2,0,0,1,50,12Z"/><path d="M45,35h1a1,1,0,0,0,0-2H45a1,1,0,0,0,0,2Z"/><path d="M49,35h5a1,1,0,0,0,0-2H49a1,1,0,0,0,0,2Z"/><path d="M45,39h1a1,1,0,0,0,0-2H45a1,1,0,0,0,0,2Z"/><path d="M49,39h5a1,1,0,0,0,0-2H49a1,1,0,0,0,0,2Z"/></g></svg>
