<svg version="1" xmlns="http://www.w3.org/2000/svg" width="933.333" height="933.333" viewBox="0 0 700.000000 700.000000"><path d="M541.4 55.1c-5.2 1.2-12.1 7.1-14.5 12.3-3.9 8.5-1.6 19.2 5.4 25.3 3.6 3.2 3.7 3.4 3.7 10.5v7.3l-5.7 2.2-5.7 2.3-5.3-5.2c-4.6-4.6-5.3-5.7-4.7-8.1 1.6-7.7-4.9-19.1-13-22.8-9.1-4.1-21.2-.6-27.1 7.9-2.7 4-3 5.1-3 12.2s.3 8.2 3 12.2c4.3 6.1 12.2 10.1 19.2 9.5 5.1-.4 5.3-.3 10.2 4.7l5 5.1-2.2 5.7-2.2 5.8h-7.7c-7.2 0-7.9-.2-9.4-2.5-2.3-3.6-9.2-7.4-14.6-8.1-12.3-1.7-24.8 9.3-24.8 21.7 0 7.8 6 16.6 13.5 20 8.4 3.8 20.4.9 25.7-6.1 2.1-2.9 2.5-3 9.7-3h7.6l2.2 5.8 2.2 5.7-5.2 5.3c-4.7 4.8-5.5 5.3-8.5 4.7-5.1-.9-13.3 1.9-17.6 6.1-4.9 4.7-6.6 8.9-6.6 15.9 0 8.6 4.6 15.8 12.7 19.9 3.9 2 13.2 2.1 17.6.2 8.1-3.4 14.7-14.8 13.2-22.8-.6-3-.1-3.8 4.7-8.5l5.3-5.2 5.7 2.2 5.8 2.2v7.5c0 7.3-.1 7.6-3.4 10.2-7.1 5.6-9.6 16.8-5.7 25.3 3.4 7.5 12.2 13.5 20 13.5 8.5 0 18.9-8 21.1-16.1 2.2-8.2-1.3-19.3-7.5-23.3-2.3-1.5-2.5-2.2-2.5-9.4v-7.7l5.8-2.2 5.7-2.2 5.1 5c5 4.9 5.1 5.1 4.7 10.2-.6 6.9 3.4 14.9 9.4 19.1 8.5 5.9 21.8 4.4 28.4-3.1 6.1-7 7.6-15.9 4-23.9-3.7-8.1-15.1-14.6-22.8-13-2.4.6-3.5-.1-8.2-4.8l-5.4-5.5 2.4-5.5 2.4-5.6h7.3c7 0 7.4.1 10.3 3.4 8.1 9.3 22.5 10.1 31.2 1.8 12.5-11.8 7.5-32.6-8.9-37.2-7.8-2.2-18.1 1-22.6 7-2.1 2.9-2.5 3-9.8 3h-7.6l-2.4-5.6-2.3-5.6 5.1-5.1c4.9-4.9 5.1-5 11.4-5.1 12-.2 20.8-8.1 21.6-19.7 1.3-17.9-15.6-29.3-31.6-21.3-8.1 4-13.8 14.9-11.8 22.7.4 1.9-.5 3.4-4.8 7.6l-5.4 5.4-5.6-2.4-5.6-2.3V103c0-7.3.1-7.7 3-9.8 6-4.5 9.2-14.8 7-22.6-3.1-11.3-15-18.2-26.6-15.5z"/><path d="M48.9 121.4c-6.2 1.6-10.3 5.1-13.4 11l-2.5 5v403.2l2.5 5.1c2.7 5.4 7.8 9.7 13.6 11.3 2.1.6 46.8 1 119.1 1H284v8.3c0 4.6.3 19.2.7 32.5l.6 24-30.4.4c-19.8.3-31.3.8-33 1.5-4.4 1.9-10.1 7.5-12 11.8-1.5 3.2-1.9 6.6-1.9 17.2V667h284v-13.3c0-10.6-.4-14-1.9-17.2-1.9-4.3-7.6-9.9-12-11.8-1.7-.7-13.2-1.2-33-1.5l-30.4-.4.6-24c.4-13.3.7-27.9.7-32.5V558h115.8c72.3 0 117-.4 119.1-1 5.8-1.6 10.9-5.9 13.6-11.3l2.5-5.1-.1-186.5c-.1-102.7-.3-185.7-.5-184.6-.2 1.1-.9 4.5-1.5 7.5-3.5 18.5-12.3 36.6-25.6 53.1l-5.3 6.6V459H66V153h361v-6.3c.1-5.6 1.7-17 3.5-24l.7-2.7-188.8.1c-147.3 0-189.9.3-193.5 1.3zM366 515.5c3.2 1.7 6 6.1 6 9.5 0 3.4-2.8 7.8-6 9.5-2.2 1.1-6.2 1.5-16 1.5-14.6 0-17.9-1-20.5-6-1.9-3.7-1.9-6.3 0-10 2.6-5.1 5.6-5.9 20.3-6 10 0 14 .4 16.2 1.5z"/><path d="M103.4 187.9c-1.7 1.1-3.6 3.4-4.3 5.2-.8 2.3-1.1 34-1.1 113.3 0 123.1-.5 115.1 7 118.8 3.3 1.7 13.4 1.8 169 1.8 164.2 0 165.5 0 168.8-2 6.3-3.9 7.4-12.8 2.1-17.6-2-1.8-6.7-1.9-162.4-2.4-88.2-.3-160.7-.9-161.2-1.3-.4-.5-1-48.3-1.3-106.4l-.5-105.5-3.3-2.9c-3.8-3.4-8.2-3.8-12.8-1zM362.3 199.1c-8.5 4.2-12.8 11.9-12 21.6.8 10 6.4 16.9 15.9 19.4 14.7 4 29.6-9.4 27.4-24.5-1-6.2-6.1-13.4-11.5-16.3-5.8-3-14-3.1-19.8-.2z"/><path d="M288.7 296.3c-8.2 2.6-15.7 12.3-15.7 20.3 0 12.4 9.9 22.3 22.3 22.4 12.3 0 21.7-9.4 21.7-22 0-15.5-13.4-25.3-28.3-20.7zM164.9 330.8c-13.2 6.9-15.9 24.7-5.3 34.9 14.8 14.3 38.9 2.5 37.2-18.2-.6-7.4-4.5-13-11.7-16.7-7.1-3.7-13.1-3.7-20.2 0zM486.3 362.9c-4.6 2.9-6.1 8.5-3.8 13.5 2.4 5.1 5.9 6.6 15.2 6.6 6 0 8.5-.5 11.1-2 5.9-3.6 7-11 2.3-16.2-2.9-3.2-3.1-3.3-12.3-3.6-7.9-.2-9.8 0-12.5 1.7zM528.4 364.4c-3.8 3.8-4.4 7.7-1.9 12.6 3 5.7 4.5 6 36.4 6 15.9 0 30.1-.4 31.4-.9 6-2.3 8.7-8.7 6.3-14.6-2.7-6.3-4-6.5-38.2-6.5h-30.6l-3.4 3.4zM484.8 407.9c-2.8 2.5-3.3 3.6-3.3 7.5 0 3.8.5 5.1 3.2 7.8 3 3 3.9 3.3 10.7 3.6 9.3.5 14.1-1 16.7-5.2 3-4.9 2.5-9.2-1.5-13.2-3.4-3.4-3.4-3.4-13-3.4-9.2 0-9.7.1-12.8 2.9zM528.4 408.4c-3.9 3.9-4.4 7.7-1.8 12.7 2.8 5.5 5.4 5.9 36.6 5.9 32.1 0 33.7-.3 37.1-7.2 1.6-3.2 1.7-4.3.7-7.3-.6-1.9-2.3-4.4-3.7-5.5-2.5-1.9-4-2-34-2h-31.5l-3.4 3.4z"/></svg>